<svg width="208" height="51" viewBox="0 0 208 51" fill="none" xmlns="http://www.w3.org/2000/svg">
<path d="M206.199 8.94116L196.835 34.9292C194.322 42.5662 188.804 50.1797 180.961 50.1013V45.0815C185.488 45.0815 188.651 41.0569 190.947 36.1411C190.776 35.6982 190.615 35.2644 190.505 34.9292L181.141 8.94116H186.475L193.664 28.8928L200.853 8.94116H206.199Z" fill="white"/>
<path d="M64.7843 23.294V36.8626H69.8039V23.294C69.8039 18.196 73.9608 14.0391 79.0588 14.0391V9.01951C71.2157 8.94108 64.7843 15.3724 64.7843 23.294Z" fill="white"/>
<path d="M167.686 22.5873L167.686 1.64165H172.706V22.5873C172.706 27.6854 176.863 31.8422 181.961 31.8422V36.8618C174.118 36.9403 167.686 30.5089 167.686 22.5873Z" fill="white"/>
<path d="M93.8823 8.94116C86.0392 8.94116 79.6078 15.3725 79.6078 23.2157C79.6078 31.0588 86.0392 37.4902 93.8823 37.4902C101.725 37.4902 108.157 31.0588 108.157 23.2157C108.157 15.3725 101.725 8.94116 93.8823 8.94116ZM93.8823 32.549C88.7843 32.549 84.6274 28.3921 84.6274 23.2941C84.6274 18.1961 88.7843 14.0392 93.8823 14.0392C98.9803 14.0392 103.137 18.1961 103.137 23.2941C103.137 28.3921 98.9803 32.549 93.8823 32.549Z" fill="white"/>
<path d="M151.216 8.94116C143.373 8.94116 136.941 15.3725 136.941 23.2157C136.941 31.0588 143.373 37.4902 151.216 37.4902C159.059 37.4902 165.49 31.0588 165.49 23.2157C165.49 15.3725 159.059 8.94116 151.216 8.94116ZM151.216 32.549C146.118 32.549 141.961 28.3921 141.961 23.2941C141.961 18.1961 146.118 14.0392 151.216 14.0392C156.314 14.0392 160.471 18.1961 160.471 23.2941C160.471 28.3921 156.314 32.549 151.216 32.549Z" fill="white"/>
<path d="M48.7843 8.94109C46.1176 8.94109 43.6863 9.80384 41.647 11.294V1.64697H36.6274V21.098V25.3332V36.8627H41.647V25.2548V21.098C41.647 17.1764 44.8627 13.9607 48.7843 13.9607C52.7059 13.9607 55.9216 17.1764 55.9216 21.098V36.8627H60.9412V21.098C60.9412 14.4313 55.451 8.94109 48.7843 8.94109Z" fill="white"/>
<path d="M122.51 8.94116C115.843 8.94116 110.431 14.3529 110.431 21.0196V36.7843H115.451V21.098C115.451 17.1765 118.667 13.9608 122.588 13.9608C126.51 13.9608 129.726 17.1765 129.726 21.098V36.8627H134.745V21.098C134.588 14.4314 129.176 8.94116 122.51 8.94116Z" fill="white"/>
<path d="M28.4706 8.94118L32 5.41176C28.6274 2.03922 23.9216 0 18.8235 0C8.39216 0 0 8.39216 0 18.7451C0 29.098 8.39216 37.5686 18.8235 37.5686C24 37.5686 28.6274 35.451 32 32.1569L28.4706 28.6274C25.9608 31.0588 22.5882 32.6275 18.8235 32.6275C11.2157 32.6275 5.01961 26.4314 5.01961 18.8235C5.01961 14.5882 6.90196 10.902 9.88235 8.31373L8.86274 4.86275L10.6667 7.68627L10.902 8L16.3922 16.6274C16.1569 16.8627 16 17.098 15.9216 17.4118C15.2157 19.0588 15.9216 21.0196 17.5686 21.7255C19.2157 22.4314 21.1765 21.7255 21.8824 20.0784H28.9412V17.4902H21.8824C21.5686 16.7843 21.0196 16.1569 20.2353 15.8431C19.5294 15.5294 18.7451 15.5294 18.1176 15.6863L12.3922 6.66667C14.3529 5.64706 16.549 5.01961 18.902 5.01961C22.5882 4.94118 25.9608 6.5098 28.4706 8.94118Z" fill="white"/>
</svg>
